# AST/ASF file generated using VICON BodyLanguage
# -----------------------------------------------
:version 1.10
:name VICON
:units
  mass 1.0
  length 0.45
  angle deg
:documentation
   .ast/.asf automatically generated from VICON data using
   VICON BodyBuilder and BodyLanguage model FoxedUp or BRILLIANT.MOD
:root
   order TX TY TZ RX RY RZ
   axis XYZ
   position 0 0 0  
   orientation 0 0 0 
:bonedata
  begin
     id 1 
     name lhipjoint
     direction 0.535335 -0.74333 0.401095 
     length 2.04549 
     axis 0 0 0  XYZ
  end
  begin
     id 2 
     name lfemur
     direction 0.34202 -0.939693 0  
     length 6.95643  
     axis 0 0 20  XYZ
    dof rx ry rz
    limits (-160.0 20.0)
           (-70.0 70.0)
           (-60.0 70.0)
  end
  begin
     id 3 
     name ltibia
     direction 0.34192 -0.939729 0   
     length 5.55969   
     axis 0 0 20   XYZ
    dof rx
    limits (-10.0 170.0)
  end
  begin
     id 4 
     name lfoot
     direction 0.216943 -0.596046 0.773088   
     length 2.27918   
     axis -90 7.62852e-016 20   XYZ
    dof rx rz
    limits (-45.0 90.0)
           (-70.0 20.0)
  end
  begin
     id 5 
     name ltoes
     direction 1.53519e-011 -4.21748e-011 1   
     length 1.05562   
     axis -90 7.62852e-016 20   XYZ
    dof rx
    limits (-90.0 20.0)
  end
  begin
     id 6 
     name rhipjoint
     direction -0.576368 -0.719173 0.38806   
     length 2.1142  
     axis 0 0 0  XYZ 
  end
  begin
     id 7 
     name rfemur
     direction -0.34202 -0.939693 0   
     length 7.07928   
     axis 0 0 -20   XYZ
    dof rx ry rz
    limits (-160.0 20.0)
           (-70.0 70.0)
           (-70.0 60.0)
  end
  begin
     id 8 
     name rtibia
     direction -0.34202 -0.939693 0   
     length 5.79974   
     axis 0 0 -20   XYZ
    dof rx
    limits (-10.0 170.0)
 end
 begin
     id 9 
     name rfoot
     direction -0.189288 -0.520065 0.832888   
     length 2.42173  
     axis -90 -7.62852e-016 -20   XYZ
    dof rx rz
    limits (-45.0 90.0)
           (-20.0 70.0)
  end
  begin
     id 10 
     name rtoes
     direction -1.53574e-011 -4.21658e-011 1   
     length 1.14469   
     axis -90 -7.62852e-016 -20   XYZ
    dof rx
    limits (-90.0 20.0)
  end
  begin
     id 11 
     name lowerback
     direction -0.00135702 0.993803 0.111144   
     length 1.91308   
     axis 0 0 0   XYZ
    dof rx ry rz
    limits (-20.0 45.0)
           (-30.0 30.0)
           (-30.0 30.0)
  end
  begin
     id 12 
     name upperback
     direction -0.0056745 0.999813 0.0184631   
     length 1.9212   
     axis 0 0 0   XYZ
    dof rx ry rz
    limits (-20.0 45.0)
           (-30.0 30.0)
           (-30.0 30.0)
  end
  begin
     id 13 
     name thorax
     direction -0.00733434 0.999426 -0.0330788   
     length 1.94196   
     axis 0 0 0   XYZ
    dof rx ry rz
    limits (-20.0 45.0)
           (-30.0 30.0)
           (-30.0 30.0)
  end
  begin
     id 14 
     name lowerneck
     direction 0.0563074 0.996944 -0.0541571   
     length 2.34257   
     axis 0 0 0   XYZ
    dof rx ry rz
    limits (-20.0 45.0)
           (-30.0 30.0)
           (-30.0 30.0)
  end
  begin
     id 15 
     name upperneck
     direction -0.0544519 0.976166 -0.210085   
     length 2.32506   
     axis 0 0 0   XYZ
    dof rx ry rz
    limits (-20.0 45.0)
           (-30.0 30.0)
           (-30.0 30.0)
  end
  begin
     id 16
     name head
     direction -0.0226035 0.997615 -0.0652205  
     length 2.3648  
     axis 0 0 0   XYZ
    dof rx ry rz
    limits (-20.0 45.0)
           (-30.0 30.0)
           (-30.0 30.0)
  end
  begin
     id 17 
     name lclavicle
     direction 0.92109 0.381297 -0.0787716  
     length 4.0487  
     axis 0 0 0   XYZ
    dof ry rz
    limits (-20.0 10.0)
           (0.0 20.0)
  end
  begin
     id 18 
     name lhumerus
     direction 1 -4.48986e-011 3.56724e-027   
     length 4.94991   
     axis 180 -30 -90   XYZ
    dof rx ry rz
    limits (-60.0 90.0)
           (-90.0 90.0)
           (-90.0 90.0)
  end
  begin
     id 19
     name lradius
     direction 1 -4.48981e-011 8.62147e-027   
     length 2.7606   
     axis 180 -30 -90   XYZ
    dof rx
    limits (-10.0 170.0)
  end
  begin
     id 20
     name lwrist
     direction 1 -4.48989e-011 1.59799e-026   
     length 1.3803   
     axis -1.17785e-014 90 90   XYZ
    dof ry
    limits (-180.0 0.0)
 end
  begin
     id 21 
     name lhand
     direction 1 -4.48896e-011 3.19599e-026   
     length 0.843936   
     axis -2.03931e-014 90 90   XYZ
    dof rx rz
    limits (-90.0 90.0)
           (-45.0 45.0)
  end
  begin
     id 22 
     name lfingers
     direction 1 -4.48887e-011 6.39197e-026   
     length 0.680403   
     axis -4.07862e-014 90 90   XYZ
    dof rx
    limits (0.0 90.0)
  end
  begin
     id 23
     name lthumb
     direction 0.707107 -6.348e-011 0.707107   
     length 0.976926   
     axis -90 45 2.85299e-015   XYZ
    dof rx rz
    limits (-45.0 45.0)
           (-45.0 45.0)
  end
  begin
     id 24 
     name rclavicle
     direction -0.951104 0.307692 -0.026953   
     length 4.21801  
     axis 0 0 0   XYZ 
    dof ry rz
    limits (-10.0 20.0)
           (-20.0 0.0)
  end
  begin
     id 25 
     name rhumerus
     direction -1 -4.4896e-011 -1.8171e-018  
     length 4.32982   
     axis 180 30 90   XYZ
    dof rx ry rz
    limits (-90.0 60.0)
           (-90.0 90.0)
           (-90.0 90.0)
  end
  begin
     id 26 
     name rradius
     direction -1 -4.48959e-011 8.25165e-027   
     length 3.20057   
     axis 180 30 90   XYZ
    dof rx
    limits (-10.0 170.0)
  end
  begin
     id 27 
     name rwrist
     direction -1 -4.48997e-011 1.59799e-026   
     length 1.60029   
     axis -1.17785e-014 -90 -90   XYZ
    dof ry
    limits (-180.0 0.0)
  end
  begin
     id 28
     name rhand
     direction -1 -4.49023e-011 3.19599e-026   
     length 0.960433   
     axis -2.03931e-014 -90 -90   XYZ
    dof rx rz
    limits (-90.0 90.0)
           (-45.0 45.0)
  end
  begin
     id 29
     name rfingers
     direction -1 -4.48802e-011 6.39197e-026   
     length 0.774326   
     axis -4.07862e-014 -90 -90   XYZ
    dof rx
    limits (0.0 90.0)
  end
  begin
     id 30
     name rthumb
     direction -0.707107 -6.34876e-011 0.707107   
     length 1.11178   
     axis -90 -45 -2.85299e-015   XYZ
    dof rx rz
    limits (-45.0 45.0)
           (-45.0 45.0)
  end
:hierarchy
  begin
    root lhipjoint rhipjoint lowerback
    lhipjoint lfemur
    lfemur ltibia
    ltibia lfoot
    lfoot ltoes
    rhipjoint rfemur
    rfemur rtibia
    rtibia rfoot
    rfoot rtoes
    lowerback upperback
    upperback thorax
    thorax lowerneck lclavicle rclavicle
    lowerneck upperneck
    upperneck head
    lclavicle lhumerus
    lhumerus lradius
    lradius lwrist
    lwrist lhand lthumb
    lhand lfingers
    rclavicle rhumerus
    rhumerus rradius
    rradius rwrist
    rwrist rhand rthumb
    rhand rfingers
end

#!OML:ASF C:\KaitlinTest1\Natural Motions\Nikki\Session 2\Nikki.ASF
:FULLY-SPECIFIED
:DEGREES
453
root -11.9666 16.4801 4.01467 96.267 91.7249 90.0187
lowerback -9.43219 -1.88763 1.60519
upperback -4.60957 -2.47825 -0.310979
thorax 0.419265 -1.20023 -1.45674
lowerneck -7.85612 -11.0231 -10.0761
upperneck 5.52814 42.3652 5.44601
head 167.487 60.1154 -37.746
rclavicle -3.37934e-015 -1.98785e-015
rhumerus -44.255 -24.7331 -76.9043
rradius 18.2777
rwrist 15.8343
rhand -34.5824 0.0775484
rfingers 7.12502
rthumb -7.74175 -29.7607
lclavicle -3.37934e-015 -1.98785e-015
lhumerus -43.4736 20.5835 77.0507
lradius 22.5627
lwrist -27.4796
lhand -33.1469 3.75603
lfingers 7.12502
lthumb -6.35601 33.6407
rfemur -5.16049 -20.7688 20.8997
rtibia 15.9698
rfoot -13.6361 10.5325
rtoes 0
lfemur -8.90346 16.5948 -16.2399
ltibia 20.7784
lfoot -9.80942 -18.3797
ltoes -2.54444e-014
454
root -11.9714 16.4805 4.01722 97.5216 91.726 91.2797
lowerback -9.41162 -1.87612 1.58489
upperback -4.61909 -2.46093 -0.300111
thorax 0.400192 -1.19135 -1.43161
lowerneck -7.85757 -11.0047 -10.1142
upperneck 5.57091 42.5026 5.46471
head 167.487 60.0753 -37.7816
rclavicle -8.99501e-015 -1.98785e-016
rhumerus -43.9817 -24.547 -77.1726
rradius 18.2519
rwrist 16.1599
rhand -34.4346 0.0862777
rfingers 7.12502
rthumb -7.59904 -29.7572
lclavicle -8.99501e-015 -1.98785e-016
lhumerus -43.2418 20.2067 77.4492
lradius 22.8064
lwrist -27.1296
lhand -33.3667 3.6801
lfingers 7.12502
lthumb -6.56823 33.5582
rfemur -5.18659 -20.6911 20.9192
rtibia 15.9844
rfoot -13.6301 10.4901
rtoes 1.19271e-014
lfemur -8.93099 16.6864 -16.2358
ltibia 20.7856
lfoot -9.79336 -18.4199
ltoes -2.8625e-014
455
root -12.0129 16.4855 4.03111 90.7831 91.7843 84.4261
lowerback -8.98252 -1.97711 1.40596
upperback -4.76101 -2.5728 -0.217591
thorax 0.026531 -1.24697 -1.23739
lowerneck -7.84249 -10.9791 -10.1587
upperneck 5.56856 42.4987 5.45644
head 167.504 60.1624 -37.7805
rclavicle -2.66868e-014 -5.96354e-016
rhumerus -43.6586 -24.2364 -77.5793
rradius 18.2828
rwrist 16.2813
rhand -34.5425 1.06189
rfingers 7.12502
rthumb -7.70323 -28.7778
lclavicle -2.66868e-014 -5.96354e-016
lhumerus -42.7474 18.2894 78.8491
lradius 23.1878
lwrist -25.2022
lhand -33.508 4.00358
lfingers 7.12502
lthumb -6.70461 33.8774
rfemur -5.53856 -19.7546 21.2786
rtibia 16.0277
rfoot -13.3568 9.31658
rtoes 5.64548e-014
lfemur -9.34639 16.4912 -16.1776
ltibia 20.7638
lfoot -9.47606 -18.4518
ltoes 1.27222e-014
456
root -12.0188 16.4875 4.03392 92.5545 91.7241 86.1639
lowerback -9.01168 -1.96058 1.31916
upperback -4.77593 -2.54368 -0.206002
thorax 0.0325761 -1.23038 -1.1752
lowerneck -7.84 -10.9656 -10.2237
upperneck 5.60318 42.6157 5.45756
head 167.502 60.0952 -37.8
rclavicle 2.1419e-014 6.95746e-015
rhumerus -43.3019 -23.682 -78.141
rradius 18.3596
rwrist 15.8005
rhand -34.6614 0.906036
rfingers 7.12502
rthumb -7.81799 -28.9294
lclavicle 2.1419e-014 6.95746e-015
lhumerus -42.832 19.5919 78.1484
lradius 23.364
lwrist -26.795
lhand -33.151 3.62441
lfingers 7.12502
lthumb -6.36001 33.5089
rfemur -5.64991 -19.6458 21.2513
rtibia 16.0956
rfoot -13.3479 9.24928
rtoes -3.89618e-014
lfemur -9.38889 16.4974 -16.259
ltibia 20.7115
lfoot -9.44939 -18.4153
ltoes -1.59028e-015
457
root -12.0227 16.489 4.03523 94.8141 91.6403 88.3906
lowerback -9.11872 -1.94858 1.23407
upperback -4.7151 -2.52394 -0.247963
thorax 0.156837 -1.21889 -1.17442
lowerneck -7.93736 -10.977 -10.1672
upperneck 5.55974 42.5525 5.44048
head 167.382 60.2591 -37.9152
rclavicle 3.08116e-015 -2.98177e-015
rhumerus -42.8841 -23.3422 -78.6622
rradius 18.404
rwrist 15.7791
rhand -34.6331 0.461514
rfingers 7.12502
rthumb -7.79068 -29.375
lclavicle 3.08116e-015 -2.98177e-015
lhumerus -42.5224 19.2908 78.4087
lradius 23.5781
lwrist -26.8125
lhand -33.488 3.35977
lfingers 7.12502
lthumb -6.68533 33.2342
rfemur -5.73725 -19.6047 21.1684
rtibia 16.1653
rfoot -13.3775 9.27358
rtoes -1.43125e-014
lfemur -9.41016 16.5044 -16.3742
ltibia 20.6503
lfoot -9.37521 -18.3532
ltoes -2.06736e-014
458
root -12.0256 16.4917 4.03781 95.5417 91.5404 89.0455
lowerback -9.23006 -1.94772 1.10363
upperback -4.73638 -2.51141 -0.23887
thorax 0.202497 -1.20916 -1.09461
lowerneck -7.92222 -10.9534 -10.2446
upperneck 5.59662 42.6787 5.44957
head 167.453 60.1694 -37.8828
rclavicle -4.48259e-014 -8.34896e-015
rhumerus -42.6001 -22.9974 -78.999
rradius 18.4436
rwrist 15.6509
rhand -34.6761 0.0564396
rfingers 7.12502
rthumb -7.83215 -29.7785
lclavicle -4.48259e-014 -8.34896e-015
lhumerus -42.1865 18.8449 78.8873
lradius 23.5603
lwrist -26.5795
lhand -33.863 3.25385
lfingers 7.12502
lthumb -7.04733 33.1165
rfemur -5.84884 -19.6384 21.0844
rtibia 16.1797
rfoot -13.3624 9.32351
rtoes 2.54444e-014
lfemur -9.46748 16.4849 -16.5152
ltibia 20.5934
lfoot -9.36133 -18.3125
ltoes 1.90833e-014
459
root -12.0307 16.492 4.03795 95.0215 91.545 88.5414
lowerback -9.20789 -1.95676 1.11671
upperback -4.72168 -2.5249 -0.261994
thorax 0.203555 -1.21668 -1.12645
lowerneck -7.95175 -10.9364 -10.1999
upperneck 5.62253 42.781 5.4992
head 167.529 60.1585 -37.8808
rclavicle 2.53947e-014 2.38542e-015
rhumerus -42.2879 -22.8294 -79.404
rradius 18.4586
rwrist 15.6882
rhand -34.868 -0.0353844
rfingers 7.12502
rthumb -8.01739 -29.8633
lclavicle 2.53947e-014 2.38542e-015
lhumerus -41.9172 18.4441 79.1926
lradius 23.7254
lwrist -26.4088
lhand -34.0218 3.17138
lfingers 7.12502
lthumb -7.20057 33.0289
rfemur -5.82794 -19.6006 21.0886
rtibia 16.1401
rfoot -13.307 9.29176
rtoes 4.77083e-014
lfemur -9.46785 16.4905 -16.5096
ltibia 20.5818
lfoot -9.33811 -18.3356
ltoes -1.59028e-015
